<?xml version="1.0" encoding="UTF-8"?>
<svg width="700pt" height="700pt" version="1.1" viewBox="0 0 700 700" xmlns="http://www.w3.org/2000/svg" xmlns:xlink="http://www.w3.org/1999/xlink">
 <defs>
  <symbol id="h" overflow="visible">
   <path d="m3.6562-0.21875c-0.1875 0.09375-0.38672 0.16797-0.59375 0.21875-0.19922 0.050781-0.40625 0.078125-0.625 0.078125-0.66797 0-1.1992-0.17969-1.5938-0.54688-0.38672-0.375-0.57812-0.87891-0.57812-1.5156 0-0.64453 0.19141-1.1484 0.57812-1.5156 0.39453-0.375 0.92578-0.5625 1.5938-0.5625 0.21875 0 0.42578 0.027344 0.625 0.078125 0.20703 0.054687 0.40625 0.125 0.59375 0.21875v0.82812c-0.1875-0.125-0.375-0.21875-0.5625-0.28125-0.17969-0.0625-0.37109-0.09375-0.57812-0.09375-0.36719 0-0.65625 0.12109-0.875 0.35938-0.21094 0.23047-0.3125 0.55469-0.3125 0.96875 0 0.40625 0.10156 0.73047 0.3125 0.96875 0.21875 0.23047 0.50781 0.34375 0.875 0.34375 0.20703 0 0.39844-0.023437 0.57812-0.078125 0.1875-0.0625 0.375-0.16016 0.5625-0.29688z"/>
  </symbol>
  <symbol id="d" overflow="visible">
   <path d="m2.6875-2.1719c-0.085938-0.039063-0.16797-0.070313-0.25-0.09375-0.085938-0.019531-0.16797-0.03125-0.25-0.03125-0.25 0-0.44531 0.085937-0.57812 0.25-0.125 0.15625-0.1875 0.38281-0.1875 0.67188v1.375h-0.96875v-2.9844h0.96875v0.48438c0.11328-0.19531 0.25-0.33594 0.40625-0.42188 0.16406-0.09375 0.35938-0.14062 0.57812-0.14062h0.10938c0.039063 0 0.09375 0.007812 0.15625 0.015625z"/>
  </symbol>
  <symbol id="c" overflow="visible">
   <path d="m3.4375-1.5v0.26562h-2.2344c0.03125 0.23047 0.11328 0.40234 0.25 0.51562 0.13281 0.10547 0.32812 0.15625 0.57812 0.15625 0.20703 0 0.41406-0.023438 0.625-0.078125 0.20703-0.0625 0.42188-0.15625 0.64062-0.28125v0.73438c-0.21875 0.09375-0.44531 0.16406-0.67188 0.20312-0.23047 0.039062-0.45312 0.0625-0.67188 0.0625-0.54297 0-0.96484-0.13281-1.2656-0.40625-0.30469-0.28125-0.45312-0.67188-0.45312-1.1719 0-0.47656 0.14453-0.85938 0.4375-1.1406 0.30078-0.28125 0.70703-0.42188 1.2188-0.42188 0.46875 0 0.84375 0.14062 1.125 0.42188s0.42188 0.66406 0.42188 1.1406zm-0.96875-0.32812c0-0.17578-0.058594-0.31641-0.17188-0.42188-0.10547-0.11328-0.24219-0.17188-0.40625-0.17188-0.1875 0-0.33984 0.054687-0.45312 0.15625-0.11719 0.10547-0.1875 0.25-0.21875 0.4375z"/>
  </symbol>
  <symbol id="e" overflow="visible">
   <path d="m1.7969-1.3438c-0.19922 0-0.35156 0.039062-0.45312 0.10938-0.09375 0.0625-0.14062 0.16406-0.14062 0.29688 0 0.11719 0.035156 0.21094 0.10938 0.28125 0.082031 0.0625 0.19531 0.09375 0.34375 0.09375 0.17578 0 0.32812-0.0625 0.45312-0.1875s0.1875-0.28516 0.1875-0.48438v-0.10938zm1.4688-0.35938v1.7031h-0.96875v-0.4375c-0.125 0.17969-0.27344 0.30859-0.4375 0.39062-0.15625 0.082031-0.35156 0.125-0.57812 0.125-0.3125 0-0.57031-0.085938-0.76562-0.26562-0.1875-0.1875-0.28125-0.42188-0.28125-0.70312 0-0.35156 0.11719-0.61328 0.35938-0.78125 0.23828-0.16406 0.61719-0.25 1.1406-0.25h0.5625v-0.0625c0-0.15625-0.0625-0.26562-0.1875-0.32812-0.11719-0.070312-0.29688-0.10938-0.54688-0.10938-0.21094 0-0.40234 0.023437-0.57812 0.0625-0.17969 0.042969-0.33984 0.10156-0.48438 0.17188v-0.71875c0.19531-0.050781 0.39844-0.085938 0.60938-0.10938 0.20703-0.03125 0.41406-0.046875 0.625-0.046875 0.53906 0 0.92969 0.10938 1.1719 0.32812 0.23828 0.21094 0.35938 0.55469 0.35938 1.0312z"/>
  </symbol>
  <symbol id="b" overflow="visible">
   <path d="m1.5-3.8438v0.85938h0.98438v0.67188h-0.98438v1.2812c0 0.13672 0.023438 0.23047 0.078125 0.28125 0.0625 0.042969 0.17578 0.0625 0.34375 0.0625h0.48438v0.6875h-0.8125c-0.38672 0-0.65625-0.078125-0.8125-0.23438s-0.23438-0.42188-0.23438-0.79688v-1.2812h-0.46875v-0.67188h0.46875v-0.85938z"/>
  </symbol>
  <symbol id="l" overflow="visible">
   <path d="m2.5-2.5469v-1.6094h0.95312v4.1562h-0.95312v-0.4375c-0.13672 0.17969-0.28125 0.30859-0.4375 0.39062-0.15625 0.082031-0.33984 0.125-0.54688 0.125-0.375 0-0.68359-0.14453-0.92188-0.4375-0.23047-0.28906-0.34375-0.67188-0.34375-1.1406 0-0.45703 0.11328-0.83203 0.34375-1.125 0.23828-0.28906 0.54688-0.4375 0.92188-0.4375 0.19531 0 0.375 0.042969 0.53125 0.125 0.16406 0.085938 0.31641 0.21484 0.45312 0.39062zm-0.64062 1.9375c0.20703 0 0.36328-0.070313 0.46875-0.21875 0.11328-0.15625 0.17188-0.37891 0.17188-0.67188 0-0.28125-0.058594-0.49219-0.17188-0.64062-0.10547-0.15625-0.26172-0.23438-0.46875-0.23438-0.19922 0-0.35547 0.078125-0.46875 0.23438-0.10547 0.14844-0.15625 0.35938-0.15625 0.64062 0 0.29297 0.050781 0.51562 0.15625 0.67188 0.11328 0.14844 0.26953 0.21875 0.46875 0.21875z"/>
  </symbol>
  <symbol id="k" overflow="visible">
   <path d="m2.0469-0.60938c0.20703 0 0.36328-0.070313 0.46875-0.21875 0.11328-0.15625 0.17188-0.37891 0.17188-0.67188 0-0.28125-0.058594-0.49219-0.17188-0.64062-0.10547-0.15625-0.26172-0.23438-0.46875-0.23438-0.19922 0-0.35547 0.078125-0.46875 0.23438-0.10547 0.14844-0.15625 0.35938-0.15625 0.64062 0 0.29297 0.050781 0.51562 0.15625 0.67188 0.11328 0.14844 0.26953 0.21875 0.46875 0.21875zm-0.625-1.9375c0.125-0.17578 0.26562-0.30469 0.42188-0.39062 0.16406-0.082031 0.35156-0.125 0.5625-0.125 0.36328 0 0.66406 0.14844 0.90625 0.4375 0.23828 0.29297 0.35938 0.66797 0.35938 1.125 0 0.46875-0.12109 0.85156-0.35938 1.1406-0.24219 0.29297-0.54297 0.4375-0.90625 0.4375-0.21094 0-0.39844-0.042969-0.5625-0.125-0.15625-0.082031-0.29688-0.21094-0.42188-0.39062v0.4375h-0.96875v-4.1562h0.96875z"/>
  </symbol>
  <symbol id="j" overflow="visible">
   <path d="m0.0625-2.9844h0.95312l0.8125 2.0156 0.6875-2.0156h0.95312l-1.2656 3.2656c-0.125 0.33203-0.27344 0.56641-0.4375 0.70312-0.16797 0.13281-0.39062 0.20312-0.67188 0.20312h-0.54688v-0.64062h0.29688c0.16406 0 0.28516-0.027344 0.35938-0.078125 0.070313-0.054688 0.12891-0.14062 0.17188-0.26562l0.03125-0.09375z"/>
  </symbol>
  <symbol id="i" overflow="visible">
   <path d="m0.5-3.9844h2.7812v0.78125h-1.75v0.73438h1.6406v0.78125h-1.6406v1.6875h-1.0312z"/>
  </symbol>
  <symbol id="g" overflow="visible">
   <path d="m3.4688-1.8281v1.8281h-0.96875v-1.3906c0-0.25781-0.007812-0.4375-0.015625-0.53125-0.011719-0.10156-0.03125-0.17578-0.0625-0.21875-0.03125-0.0625-0.085937-0.10938-0.15625-0.14062-0.0625-0.039062-0.13281-0.0625-0.20312-0.0625-0.21094 0-0.37109 0.078125-0.48438 0.23438-0.10547 0.15625-0.15625 0.37109-0.15625 0.64062v1.4688h-0.96875v-2.9844h0.96875v0.4375c0.13281-0.17578 0.28516-0.30469 0.45312-0.39062 0.16406-0.082031 0.34375-0.125 0.53125-0.125 0.34375 0 0.60156 0.10938 0.78125 0.32812 0.1875 0.21094 0.28125 0.51172 0.28125 0.90625z"/>
  </symbol>
  <symbol id="a" overflow="visible">
   <path d="m1.875-2.375c-0.21094 0-0.37109 0.078125-0.48438 0.23438-0.10547 0.14844-0.15625 0.35938-0.15625 0.64062 0 0.29297 0.050781 0.51562 0.15625 0.67188 0.11328 0.14844 0.27344 0.21875 0.48438 0.21875 0.20703 0 0.36719-0.070313 0.48438-0.21875 0.11328-0.15625 0.17188-0.37891 0.17188-0.67188 0-0.28125-0.058594-0.49219-0.17188-0.64062-0.11719-0.15625-0.27734-0.23438-0.48438-0.23438zm0-0.6875c0.51953 0 0.92188 0.14062 1.2031 0.42188 0.28906 0.27344 0.4375 0.65234 0.4375 1.1406 0 0.5-0.14844 0.89062-0.4375 1.1719-0.28125 0.27344-0.68359 0.40625-1.2031 0.40625-0.51172 0-0.91406-0.13281-1.2031-0.40625-0.29297-0.28125-0.4375-0.67188-0.4375-1.1719 0-0.48828 0.14453-0.86719 0.4375-1.1406 0.28906-0.28125 0.69141-0.42188 1.2031-0.42188z"/>
  </symbol>
  <symbol id="f" overflow="visible">
   <path d="m0.42188-1.1719v-1.8125h0.96875v0.29688 0.60938 0.48438c0 0.24219 0.003906 0.41797 0.015625 0.53125 0.007812 0.10547 0.03125 0.17969 0.0625 0.21875 0.039062 0.0625 0.09375 0.11719 0.15625 0.15625 0.0625 0.03125 0.13281 0.046875 0.21875 0.046875 0.19531 0 0.35156-0.078125 0.46875-0.23438 0.11328-0.15625 0.17188-0.36719 0.17188-0.64062v-1.4688h0.95312v2.9844h-0.95312v-0.4375c-0.14844 0.17969-0.30469 0.30859-0.46875 0.39062-0.15625 0.082031-0.33594 0.125-0.53125 0.125-0.34375 0-0.60938-0.10156-0.79688-0.3125-0.17969-0.21875-0.26562-0.53125-0.26562-0.9375z"/>
  </symbol>
  <symbol id="s" overflow="visible">
   <path d="m2.4219-4.1562v0.625h-0.51562c-0.13672 0-0.23438 0.027344-0.29688 0.078125-0.054687 0.054687-0.078125 0.13672-0.078125 0.25v0.21875h0.82812v0.67188h-0.82812v2.3125h-0.95312v-2.3125h-0.46875v-0.67188h0.46875v-0.21875c0-0.32031 0.085937-0.5625 0.26562-0.71875 0.1875-0.15625 0.47266-0.23438 0.85938-0.23438z"/>
  </symbol>
  <symbol id="r" overflow="visible">
   <path d="m3.2344-2.5c0.11328-0.17578 0.25391-0.3125 0.42188-0.40625 0.16406-0.10156 0.35156-0.15625 0.5625-0.15625 0.33203 0 0.58594 0.10938 0.76562 0.32812 0.1875 0.21094 0.28125 0.51172 0.28125 0.90625v1.8281h-0.96875v-1.5625c0.007813-0.019531 0.015625-0.039062 0.015625-0.0625v-0.10938c0-0.21875-0.03125-0.375-0.09375-0.46875s-0.16406-0.14062-0.29688-0.14062c-0.1875 0-0.33594 0.078125-0.4375 0.23438-0.09375 0.14844-0.14062 0.35938-0.14062 0.64062v1.4688h-0.96875v-1.5625c0-0.33203-0.03125-0.54688-0.09375-0.64062-0.054688-0.09375-0.15234-0.14062-0.29688-0.14062-0.17969 0-0.32031 0.078125-0.42188 0.23438-0.09375 0.14844-0.14062 0.35938-0.14062 0.64062v1.4688h-0.96875v-2.9844h0.96875v0.4375c0.11328-0.17578 0.24219-0.30469 0.39062-0.39062 0.15625-0.082031 0.32812-0.125 0.51562-0.125 0.20703 0 0.39062 0.054688 0.54688 0.15625 0.15625 0.09375 0.27344 0.23047 0.35938 0.40625z"/>
  </symbol>
  <symbol id="q" overflow="visible">
   <path d="m3.4688-1.8281v1.8281h-0.96875v-1.3906c0-0.25781-0.007812-0.4375-0.015625-0.53125-0.011719-0.10156-0.03125-0.17578-0.0625-0.21875-0.03125-0.0625-0.085937-0.10938-0.15625-0.14062-0.0625-0.039062-0.13281-0.0625-0.20312-0.0625-0.21094 0-0.37109 0.078125-0.48438 0.23438-0.10547 0.15625-0.15625 0.37109-0.15625 0.64062v1.4688h-0.96875v-4.1562h0.96875v1.6094c0.13281-0.17578 0.28516-0.30469 0.45312-0.39062 0.16406-0.082031 0.34375-0.125 0.53125-0.125 0.34375 0 0.60156 0.10938 0.78125 0.32812 0.1875 0.21094 0.28125 0.51172 0.28125 0.90625z"/>
  </symbol>
  <symbol id="p" overflow="visible">
   <path d="m0.5-3.9844h1.1562l1.4375 2.7344v-2.7344h0.98438v3.9844h-1.1562l-1.4375-2.7344v2.7344h-0.98438z"/>
  </symbol>
  <symbol id="o" overflow="visible">
   <path d="m0.5-3.9844h1.7031c0.50781 0 0.89844 0.11719 1.1719 0.34375 0.26953 0.21875 0.40625 0.53906 0.40625 0.95312 0 0.41797-0.13672 0.74219-0.40625 0.96875-0.27344 0.21875-0.66406 0.32812-1.1719 0.32812h-0.67188v1.3906h-1.0312zm1.0312 0.75v1.1094h0.5625c0.19531 0 0.34766-0.046875 0.45312-0.14062 0.11328-0.10156 0.17188-0.24219 0.17188-0.42188 0-0.17578-0.058594-0.3125-0.17188-0.40625-0.10547-0.09375-0.25781-0.14062-0.45312-0.14062z"/>
  </symbol>
  <symbol id="n" overflow="visible">
   <path d="m0.45312-2.9844h0.96875v2.9375c0 0.39453-0.10156 0.69531-0.29688 0.90625-0.1875 0.21875-0.46484 0.32812-0.82812 0.32812h-0.48438v-0.64062h0.17188c0.17578 0 0.29688-0.042969 0.35938-0.125 0.070312-0.074219 0.10938-0.23047 0.10938-0.46875zm0-1.1719h0.96875v0.78125h-0.96875z"/>
  </symbol>
  <symbol id="m" overflow="visible">
   <path d="m2.875-2.8906v0.76562c-0.125-0.082031-0.25781-0.14453-0.39062-0.1875-0.13672-0.039062-0.27344-0.0625-0.40625-0.0625-0.27344 0-0.48047 0.078125-0.625 0.23438-0.14844 0.15625-0.21875 0.37109-0.21875 0.64062 0 0.28125 0.070313 0.5 0.21875 0.65625 0.14453 0.15625 0.35156 0.23438 0.625 0.23438 0.14453 0 0.28516-0.019531 0.42188-0.0625 0.13281-0.039063 0.25781-0.10938 0.375-0.20312v0.78125c-0.14844 0.0625-0.29688 0.10156-0.45312 0.125-0.15625 0.03125-0.3125 0.046875-0.46875 0.046875-0.54297 0-0.96484-0.13281-1.2656-0.40625-0.30469-0.28125-0.45312-0.67188-0.45312-1.1719 0-0.48828 0.14844-0.86719 0.45312-1.1406 0.30078-0.28125 0.72266-0.42188 1.2656-0.42188 0.15625 0 0.3125 0.015625 0.46875 0.046875 0.15625 0.023437 0.30469 0.0625 0.45312 0.125z"/>
  </symbol>
 </defs>
 <g>
  <path d="m344.97 70.656c19.578 0.98438 28.875 10.281 30.188 30.188 0.76562 8.2031 12.469 8.0938 13.125-0.10938 0.98438-19.578 10.281-28.875 30.188-30.188 3.5-0.21875 6.125-3.1719 6.125-6.5625 0-3.5-2.7344-6.3438-6.2344-6.4531-19.578-0.98438-28.875-10.281-30.188-30.188-0.21875-3.5-3.0625-6.125-6.5625-6.125s-6.3438 2.7344-6.5625 6.2344c-0.98438 19.578-10.281 28.875-30.188 30.188-8.2031 0.65625-8.0938 12.359 0.10938 13.016zm36.75-19.031c3.0625 5.1406 7.2188 9.2969 12.359 12.359-5.1406 3.0625-9.2969 7.2188-12.359 12.359-3.0625-5.1406-7.2188-9.2969-12.359-12.359 5.1406-3.0625 9.2969-7.2188 12.359-12.359z"/>
  <path d="m253.64 209.02c-2.5156-2.625-6.6719-2.625-9.2969-0.10938l-8.0938 7.875-7.875-8.2031c-2.5156-2.625-6.6719-2.625-9.2969-0.10938s-2.625 6.6719-0.10938 9.2969l7.875 8.2031-8.0938 7.7656c-2.625 2.5156-2.625 6.6719-0.10938 9.2969s6.6719 2.625 9.2969 0.10938l8.0938-7.875 7.875 8.0938c2.5156 2.625 6.6719 2.625 9.2969 0.10938s2.625-6.6719 0.10938-9.2969l-7.875-8.0938 8.0938-7.875c2.625-2.4062 2.625-6.5625 0.10938-9.1875z"/>
  <path d="m315 145.03 11.375 0.21875-0.21875 11.266c-0.10938 3.7188 2.8438 6.6719 6.5625 6.6719 3.6094 0 6.4531-2.8438 6.5625-6.4531l0.21875-11.266 11.266 0.10938c3.6094 0 6.5625-2.8438 6.6719-6.4531 0-3.6094-2.8438-6.5625-6.4531-6.6719l-11.266-0.10938 0.10938-11.375c0-3.6094-2.8438-6.5625-6.4531-6.6719s-6.5625 2.8438-6.6719 6.4531l-0.10938 11.375-11.375-0.21875c-8.75 0.10938-8.8594 12.688-0.21875 13.125z"/>
  <path d="m558.91 307.67c11.047 0 20.125-9.0781 20.125-20.125-1.0938-26.688-39.156-26.688-40.25 0 0 11.047 9.0781 20.125 20.125 20.125zm0-27.125c3.8281 0 7 3.1719 7 7-0.32812 9.2969-13.672 9.2969-14 0 0-3.8281 3.1719-7 7-7z"/>
  <path d="m157.94 146.23c11.047 0 20.125-9.0781 20.125-20.125-1.0938-26.688-39.156-26.688-40.25 0 0 11.047 9.0781 20.125 20.125 20.125zm0-27.125c3.8281 0 7 3.1719 7 7-0.32812 9.2969-13.672 9.2969-14 0 0-3.8281 3.1719-7 7-7z"/>
  <path d="m464.19 169.31c18.703 1.6406 27.344 10.828 27.891 30.078 0.4375 8.2031 12.25 8.5312 13.125 0.32812 1.6406-18.703 10.828-27.344 30.078-27.891 8.2031-0.4375 8.5312-12.25 0.32812-13.125-12.578-1.0938-26.906-8.8594-26.688-59.828-0.21875-8.4219-12.359-8.8594-13.125-0.4375-1.6406 26.469-6.5625 56.984-31.281 57.75-8.2031 0.4375-8.5312 12.25-0.32812 13.125zm36.641-27.125c2.7344 8.4219 6.7812 15.75 12.797 21.109-5.9062 2.8438-10.719 6.8906-14.219 12.25-3.1719-5.5781-7.5469-10.062-13.125-13.234 6.6719-4.9219 11.266-12.031 14.547-20.125z"/>
  <path d="m269.94 190.86c27.125 9.9531 50.531 18.594 56.984 48.891 0.76562 3.6094 4.2656 5.7969 7.7656 5.0312s5.7969-4.2656 5.0312-7.7656c-7.875-37.516-37.078-48.234-65.297-58.516-28-10.281-54.469-20.016-60.047-56.219-6.3438-39.484 9.7344-67.266 38.938-68.906 18.812 0 37.734 14.219 37.734 46.047 0.32812 8.75 12.797 8.6406 13.125 0-0.10938-58.953-57.203-76.453-88.922-40.797-9.2969 10.938-19.25 31.172-13.781 65.734 6.7812 43.859 39.484 55.891 68.469 66.5z"/>
  <path d="m388.5 226.3c-16.188 10.5-34.562 22.531-35.438 48.344-0.10938 3.6094 2.7344 6.6719 6.3438 6.7812s6.6719-2.7344 6.7812-6.3438c1.6406-39.703 60.812-37.516 65.734-83.781 4.1562-33.906-21.547-56.219-45.391-51.297-10.391 2.8438-19.469 10.609-23.625 20.234-8.8594 21.766 8.3125 38.391 21.875 42.656 8.3125 2.4062 12.25-9.4062 4.1562-12.469-7.4375-2.4062-19.359-11.703-13.891-25.047 2.5156-5.9062 8.5312-11.047 14.875-12.797 4.375-1.2031 12.031 0.21875 18.703 6.125 8.0938 7 11.703 18.047 10.281 30.953-2.1875 18.266-15.312 26.797-30.406 36.641z"/>
  <path d="m583.62 404.14c-0.76562-1.9688-2.4062-3.5-4.4844-4.0469-4.9219-1.2031-9.7344-2.4062-14.547-3.5-4.375-10.5-7.1094-21.547-8.2031-32.922-0.32812-2.9531-2.5156-5.3594-5.4688-5.7969-0.21875 0-22.422-3.8281-54.797-16.188l24.391-107.84c0.76562-3.1719-0.98438-6.3438-4.0469-7.5469s-6.4531 0-8.0938 2.8438c-0.21875 0.4375-27.344 45.938-78.422 48.672-41.344 2.625-82.906 4.7031-99.969 43.641-17.062-38.938-58.625-41.016-99.969-43.641-50.859-2.7344-78.203-48.234-78.422-48.672-1.6406-2.8438-5.0312-3.9375-8.0938-2.8438-3.0625 1.2031-4.7031 4.375-4.0469 7.5469l24.391 107.84c-32.375 12.359-54.578 16.078-54.797 16.188-2.9531 0.4375-5.1406 2.8438-5.4688 5.7969-1.2031 11.375-4.0469 22.422-8.3125 32.922-4.7031 1.0938-9.5156 2.2969-14.328 3.5-4.2656 0.98438-6.3438 6.3438-3.8281 9.9531 23.516 35.766 45.391 76.781 65.078 121.95 0.65625 1.6406 2.0781 2.8438 3.7188 3.5s3.5 0.54688 5.0312-0.10938c35-16.078 83.672-23.516 148.64-22.969l0.21875 6.125c0.10938 2.625 1.6406 4.9219 4.0469 5.9062 7.875 3.2812 15.969 6.6719 26.141 6.6719s18.266-3.3906 26.141-6.6719c2.4062-0.98438 3.9375-3.2812 4.0469-5.9062l0.21875-6.125c67.047-0.98438 113.97 7.875 151.38 23.516 2.5156 0 5.0312-1.5312 6.0156-3.9375 20.016-46.047 41.344-85.859 65.188-121.84 1.2031-1.75 1.4219-4.0469 0.65625-6.0156zm-467.58-34.125c10.281-2.1875 36.203-8.4219 69.562-22.859 43.859-20.453 92.531-8.3125 119.66 18.922 2.5156 2.625 6.6719 2.8438 9.2969 0.32812s2.8438-6.6719 0.32812-9.2969c-26.688-27.672-82.469-47.469-138.69-20.234l-17.719-78.422c14.766 14.438 38.391 30.844 70.875 32.594 48.125 3.7188 93.734 3.0625 94.062 68.031 0 3.6094 2.9531 6.5625 6.5625 6.5625s6.5625-2.9531 6.5625-6.5625c0.32812-64.969 45.938-64.312 94.062-68.031 32.484-1.75 56.109-18.156 70.875-32.594l-17.719 78.422c-56.328-27.234-111.89-7.4375-138.69 20.234-2.5156 2.625-2.2969 6.7812 0.32812 9.2969s6.7812 2.2969 9.2969-0.32812c27.234-27.344 75.906-39.375 119.66-18.922 33.359 14.328 59.172 20.672 69.453 22.75 1.0938 7.875 2.9531 15.75 5.4688 23.297-64.969-13.891-119.77-16.625-172.81-8.6406 19.688-19.688 48.562-21.109 84.328-17.172 3.6094 0.4375 6.8906-2.0781 7.3281-5.6875s-2.0781-6.8906-5.6875-7.3281c-64.094-8.0938-101.72 9.7344-112 53.047-5.25 0.98438-14.328 2.4062-20.562 2.4062s-15.312-1.4219-20.562-2.4062c-10.391-43.312-48.016-61.141-112-53.047-3.6094 0.4375-6.125 3.7188-5.6875 7.3281s3.7188 6.125 7.3281 5.6875c35.766-3.9375 64.531-2.625 84.219 17.062-53.047-7.875-107.84-5.1406-172.81 8.75 2.7344-7.5469 4.5938-15.312 5.6875-23.188zm392.33 150.72c-36.094-14.984-84.547-22.094-147.66-21.547l1.8594-66.5c0.10938-3.6094-2.7344-6.6719-6.3438-6.7812-3.6094 0-6.6719 2.7344-6.7812 6.3438l-2.2969 81.484c-12.359 5.25-21.984 5.25-34.344 0l-2.2969-81.484c-0.10938-3.6094-3.0625-6.4531-6.7812-6.3438-3.6094 0.10938-6.4531 3.1719-6.3438 6.7812l1.8594 66.5c-63.109-0.54688-111.56 6.5625-147.66 21.547-17.938-40.25-37.516-77.219-58.516-110.03 73.719-18.047 140.44-22.312 199.94-11.266 1.9688 4.4844 3.3906 9.4062 4.4844 14.875 0.54688 2.625 2.5156 4.7031 5.1406 5.25 0.65625 0.10938 16.844 3.3906 27.344 3.3906s26.688-3.2812 27.344-3.3906c2.625-0.54688 4.5938-2.625 5.1406-5.25 0.98438-5.4688 2.5156-10.391 4.375-14.875 59.609-11.156 126.44-6.7812 200.16 11.266-21.219 32.922-40.469 69.125-58.625 110.03z"/>
  <use x="70" y="576.40625" xlink:href="#h"/>
  <use x="74.011719" y="576.40625" xlink:href="#d"/>
  <use x="76.710938" y="576.40625" xlink:href="#c"/>
  <use x="80.417969" y="576.40625" xlink:href="#e"/>
  <use x="84.109375" y="576.40625" xlink:href="#b"/>
  <use x="86.722656" y="576.40625" xlink:href="#c"/>
  <use x="90.433594" y="576.40625" xlink:href="#l"/>
  <use x="96.25" y="576.40625" xlink:href="#k"/>
  <use x="100.167969" y="576.40625" xlink:href="#j"/>
  <use x="105.636719" y="576.40625" xlink:href="#i"/>
  <use x="109.371094" y="576.40625" xlink:href="#d"/>
  <use x="112.066406" y="576.40625" xlink:href="#e"/>
  <use x="115.757812" y="576.40625" xlink:href="#g"/>
  <use x="121.554688" y="576.40625" xlink:href="#h"/>
  <use x="125.570312" y="576.40625" xlink:href="#a"/>
  <use x="129.324219" y="576.40625" xlink:href="#f"/>
  <use x="133.21875" y="576.40625" xlink:href="#b"/>
  <use x="135.832031" y="576.40625" xlink:href="#a"/>
  <use x="70" y="581.875" xlink:href="#s"/>
  <use x="72.378906" y="581.875" xlink:href="#d"/>
  <use x="75.078125" y="581.875" xlink:href="#a"/>
  <use x="78.832031" y="581.875" xlink:href="#r"/>
  <use x="86.4375" y="581.875" xlink:href="#b"/>
  <use x="89.050781" y="581.875" xlink:href="#q"/>
  <use x="92.941406" y="581.875" xlink:href="#c"/>
  <use x="98.554688" y="581.875" xlink:href="#p"/>
  <use x="103.132812" y="581.875" xlink:href="#a"/>
  <use x="106.890625" y="581.875" xlink:href="#f"/>
  <use x="110.785156" y="581.875" xlink:href="#g"/>
  <use x="116.582031" y="581.875" xlink:href="#o"/>
  <use x="120.589844" y="581.875" xlink:href="#d"/>
  <use x="123.285156" y="581.875" xlink:href="#a"/>
  <use x="127.042969" y="581.875" xlink:href="#n"/>
  <use x="128.917969" y="581.875" xlink:href="#c"/>
  <use x="132.625" y="581.875" xlink:href="#m"/>
  <use x="135.867188" y="581.875" xlink:href="#b"/>
 </g>
</svg>
