<?xml version="1.0" encoding="UTF-8" standalone="no"?>
<!DOCTYPE svg PUBLIC "-//W3C//DTD SVG 1.1//EN" "http://www.w3.org/Graphics/SVG/1.1/DTD/svg11.dtd">
<svg width="100%" height="100%" viewBox="0 0 1021 857" version="1.1" xmlns="http://www.w3.org/2000/svg" xmlns:xlink="http://www.w3.org/1999/xlink" xml:space="preserve" xmlns:serif="http://www.serif.com/" style="fill-rule:evenodd;clip-rule:evenodd;stroke-linejoin:round;stroke-miterlimit:2;">
    <g id="Artboard1" transform="matrix(0.872946,0,0,0.901884,54.8155,-152.364)">
        <rect x="-62.794" y="168.939" width="1169.14" height="949.809" style="fill:none;"/>
        <clipPath id="_clip1">
            <rect x="-62.794" y="168.939" width="1169.14" height="949.809"/>
        </clipPath>
        <g clip-path="url(#_clip1)">
            <g transform="matrix(1.14555,0,0,1.10879,-66.2391,4.24283)">
                <path d="M586.36,238.31C575.047,245.063 563.623,251.557 552.09,257.79C549.44,259.22 546.25,262.5 544.28,264.73C536.22,273.897 528.207,283.13 520.24,292.43C520,292.71 519.88,293.033 519.88,293.4L520.04,305.74C520.053,306.567 520.323,306.663 520.85,306.03C524.043,302.197 527.193,298.503 530.3,294.95C532.7,292.2 535.49,290.86 538.67,289.26C538.97,289.113 539.195,288.848 539.29,288.53C541.757,280.563 544.08,272.557 546.26,264.51C547.22,260.94 552.43,260.41 551.15,264.83C548.937,272.49 546.677,280.153 544.37,287.82C544.237,288.247 544.387,288.4 544.82,288.28L552.66,286.14C553.033,286.04 553.317,285.823 553.51,285.49C558.437,277.123 562.413,268.607 565.44,259.94C565.82,258.847 566.25,257.897 566.73,257.09C566.901,256.811 567.219,256.658 567.54,256.7L570.39,257.05C570.731,257.095 571.074,257.009 571.35,256.81L586.68,245.8C586.98,245.587 587.253,245.617 587.5,245.89L588.46,246.91C588.74,247.21 588.723,247.49 588.41,247.75L570.3,262.96C570.164,263.07 570.066,263.221 570.02,263.39C568.087,270.463 565.317,277.18 561.71,283.54C561.688,283.575 561.675,283.615 561.671,283.656C561.657,283.809 561.775,283.947 561.934,283.962C561.973,283.966 562.013,283.962 562.05,283.95L578.62,278.41C579.013,278.283 579.287,278.41 579.44,278.79L580.72,281.83C580.758,281.923 580.778,282.022 580.778,282.123C580.778,282.45 580.569,282.743 580.26,282.85L537.37,297.82C537.193,297.886 537.038,297.992 536.92,298.13L520.3,318.2C520.107,318.44 520.01,318.713 520.01,319.02L520.01,412.81L502.53,412.73L502.6,324.48C502.6,324.16 502.51,323.867 502.33,323.6L491.3,307.98C490.808,307.278 490.152,306.708 489.39,306.32L457.05,289.87C456.657,289.67 456.58,289.387 456.82,289.02L458.44,286.53C458.65,286.206 459.078,286.089 459.43,286.26L484.17,298.14C484.239,298.175 484.316,298.19 484.393,298.184C484.622,298.164 484.795,297.954 484.774,297.719C484.768,297.644 484.742,297.572 484.7,297.51C481.18,292.57 475.21,281.65 469.71,279.25C458.497,274.337 447.17,269.68 435.73,265.28C435.39,265.147 435.26,264.903 435.34,264.55L435.88,262.1C436,261.56 436.32,261.383 436.84,261.57L457.25,268.99C457.286,269.003 457.324,269.01 457.362,269.01C457.538,269.01 457.682,268.866 457.682,268.69C457.682,268.642 457.671,268.594 457.65,268.55L443.52,238.87C443.36,238.523 443.37,238.183 443.55,237.85C444.17,236.73 445.077,235.98 446.27,235.6C446.65,235.473 446.923,235.59 447.09,235.95C452.297,246.817 457.593,257.643 462.98,268.43C464.19,270.85 465.98,271.78 468.39,272.59C468.81,272.73 468.98,272.58 468.9,272.14L465.18,250.87C465.125,250.548 464.905,250.275 464.6,250.15C459.64,248.21 459.66,240.98 456.19,237.04C452.097,232.387 447.893,227.83 443.58,223.37C443.227,223.01 443.23,222.65 443.59,222.29L444.69,221.19C444.804,221.076 444.959,221.012 445.121,221.012C445.297,221.012 445.464,221.088 445.58,221.22C449.02,225.18 452.597,229.013 456.31,232.72C461.12,237.52 464.3,242.34 467.84,247.8C470.1,251.28 476.81,253.09 480.64,254.13C481.073,254.25 481.24,254.09 481.14,253.65L479.67,247.32C479.597,247.013 479.447,246.75 479.22,246.53C474.313,241.95 469.523,237.25 464.85,232.43C464.577,232.143 464.453,231.807 464.48,231.42C464.56,230.187 465.187,229.317 466.36,228.81C466.687,228.67 466.98,228.72 467.24,228.96L479.14,239.88C479.427,240.14 479.61,240.083 479.69,239.71C480.57,235.877 480.323,232.827 478.95,230.56C474.59,223.367 470.293,216.113 466.06,208.8C465.833,208.413 465.92,208.12 466.32,207.92L469.16,206.51C469.527,206.33 469.84,206.393 470.1,206.7C473.43,210.65 480.63,226.3 485.59,226.5C486.164,226.521 486.625,227.001 486.63,227.58C486.71,236.47 486.55,246.52 489.09,254.64C491.67,262.933 495.833,270.287 501.58,276.7C502.18,277.373 502.483,277.26 502.49,276.36C502.52,272.01 503.48,263.45 501.46,259.7C494.813,247.413 491.58,234.19 491.76,220.03C491.76,219.697 491.647,219.41 491.42,219.17C479.167,206.543 468.203,195.73 458.53,186.73C457.857,186.097 457.96,185.433 458.84,184.74L460.89,182.28C461.143,181.973 461.383,181.98 461.61,182.3C465.557,187.84 470.143,192.803 475.37,197.19C475.395,197.21 475.424,197.226 475.454,197.236C475.59,197.28 475.737,197.209 475.779,197.079C475.79,197.047 475.793,197.013 475.79,196.98L474.46,181.86C474.433,181.54 474.58,181.363 474.9,181.33L478.42,181C478.718,180.972 478.988,181.197 479.02,181.5L481.1,201.9C481.12,202.106 481.224,202.3 481.39,202.44L491.11,210.65C491.159,210.691 491.215,210.723 491.275,210.745C491.568,210.855 491.898,210.708 492.005,210.42C492.028,210.359 492.04,210.295 492.04,210.23L492.55,182.79C492.557,182.363 492.777,182.163 493.21,182.19L498.94,182.55C499.307,182.57 499.49,182.767 499.49,183.14C499.503,195.727 499.507,208.303 499.5,220.87C499.49,229.02 500.25,240.78 505.21,246.99C505.214,246.998 505.219,247.004 505.226,247.008C505.246,247.017 505.272,247.005 505.284,246.98C505.287,246.974 505.289,246.967 505.29,246.96L505.23,195.78C505.23,195.447 505.397,195.27 505.73,195.25L512.22,194.92C513.127,194.88 513.583,195.313 513.59,196.22L513.92,260.77C513.925,261.107 514.203,261.381 514.54,261.381C514.797,261.381 515.029,261.221 515.12,260.98C516.48,257.247 517.213,253.5 517.32,249.74C517.77,233.19 517.45,216.66 517.99,200.12C518.003,199.78 518.113,199.477 518.32,199.21C519.713,197.403 520.443,195.917 520.51,194.75C521.04,186.14 520.23,176.85 521.33,168.42C521.383,168.007 521.617,167.787 522.03,167.76L527.02,167.44C527.04,167.439 527.06,167.438 527.08,167.438C527.549,167.438 527.936,167.821 527.94,168.29L528.13,184.3C528.143,185.1 528.407,185.197 528.92,184.59L540.77,170.61C541.03,170.31 541.293,170.31 541.56,170.61L544.02,173.39C544.3,173.71 544.267,173.997 543.92,174.25C543.007,174.903 542.317,175.517 541.85,176.09C537.037,182.083 531.963,188.297 526.63,194.73C526.21,195.243 526,195.83 526,196.49L526,217.54C526.001,217.621 526.018,217.7 526.05,217.775C526.182,218.082 526.539,218.229 526.842,218.099C526.917,218.067 526.984,218.02 527.04,217.96L555.62,187.66C555.927,187.333 556.247,187.32 556.58,187.62L559.14,189.95C559.299,190.092 559.391,190.296 559.391,190.51C559.391,190.699 559.319,190.881 559.19,191.02L526.18,227.23C525.913,227.523 525.813,227.867 525.88,228.26C526.32,230.7 526.423,233.17 526.19,235.67C526.057,237.13 526.48,237.317 527.46,236.23L551.25,209.83C551.432,209.627 551.692,209.512 551.964,209.512C552.217,209.512 552.46,209.612 552.64,209.79L555.09,212.21C555.337,212.45 555.347,212.697 555.12,212.95L526.81,245.09C526.673,245.253 526.586,245.455 526.56,245.67C525.6,255.337 523.647,264.763 520.7,273.95C520.05,275.96 519.86,278.37 520.03,280.26C520.15,281.587 520.65,281.75 521.53,280.75L547.23,251.5C547.289,251.428 547.33,251.342 547.35,251.25L553.76,221.26C553.88,220.687 554.213,220.503 554.76,220.71L558.08,221.95C558.447,222.088 558.664,222.475 558.59,222.86L553.31,248.76C553.305,248.785 553.302,248.811 553.302,248.837C553.302,249.034 553.464,249.197 553.662,249.197C553.685,249.197 553.708,249.194 553.73,249.19C557.223,248.503 559.587,246.447 560.82,243.02C565.067,231.187 569.07,219.27 572.83,207.27C572.977,206.817 573.27,206.677 573.71,206.85L576.86,208.09C577.32,208.277 577.473,208.607 577.32,209.08L565.96,243.26C565.954,243.281 565.951,243.302 565.951,243.324C565.951,243.444 566.05,243.544 566.171,243.544C566.205,243.544 566.239,243.536 566.27,243.52L582.7,234.09C583.02,233.903 583.283,233.96 583.49,234.26L586.36,238.31ZM473.39,271.94C473.77,275.06 477.33,275.71 478.99,278.03C486.337,288.25 493.677,298.473 501.01,308.7C501.957,310.02 502.447,309.867 502.48,308.24L502.83,293.03C502.837,292.679 502.732,292.336 502.53,292.05C495.33,281.783 488.733,271.15 482.74,260.15C482.573,259.85 482.33,259.64 482.01,259.52L471.39,255.64C471.09,255.533 470.967,255.633 471.02,255.94C471.947,261.333 472.737,266.667 473.39,271.94Z" style="fill:rgb(0,2,15);fill-rule:nonzero;"/>
            </g>
            <g transform="matrix(1.14555,0,0,1.10879,-66.2391,4.24283)">
                <path d="M979.54,412.44C979.447,412.5 979.357,412.557 979.27,412.61C979.09,412.723 978.893,412.78 978.68,412.78L553.78,412.66C564.17,396.86 579.55,389.74 597.2,380.45C605.18,376.25 611.34,370.92 618.46,363.55C645.64,335.44 679.48,312.87 716.23,299.24C753.02,285.59 791.13,289.75 827.71,303C883.58,323.24 945.62,361.28 979.54,412.44Z" style="fill:rgb(73,109,81);fill-rule:nonzero;"/>
            </g>
            <g transform="matrix(1.14555,0,0,1.10879,-66.2391,4.24283)">
                <path d="M492.77,412.64L43.05,412.73C72.98,364.86 123.19,330.42 174.96,309.59C223.74,289.96 275.08,295.65 319.07,324.18C337.19,335.93 352.69,347.2 372.84,351.79C375.76,352.457 382.077,353.34 391.79,354.44C432.38,359.03 472.75,374.43 492.77,412.64Z" style="fill:rgb(73,109,81);fill-rule:nonzero;"/>
            </g>
            <g transform="matrix(1.14555,0,0,1.10879,-66.2391,-17.3376)">
                <path d="M0,960.19L0.212,468.738C0.112,468.751 11.81,467.807 11.73,467.9C11.563,468.08 11.603,468.17 11.85,468.17C19.343,468.31 30.08,468.263 44.06,468.03C85.6,467.35 148.31,466.52 232.19,465.54C255.983,465.267 279.773,465.483 303.56,466.19C340.99,467.3 390.44,475.47 419.4,501.58C448.48,527.79 432.27,562.51 417.16,590.43C380.55,658.06 330.15,716.29 272.39,768.63C190.04,843.23 97.54,904.57 1.15,959.38C0.97,959.48 0.787,959.523 0.6,959.51C0.393,959.49 0.28,959.583 0.26,959.79C0.24,960.103 0.153,960.237 0,960.19Z" style="fill:rgb(226,92,49);fill-rule:nonzero;"/>
            </g>
            <g transform="matrix(1.14555,0,0,1.10879,-66.2391,-17.3376)">
                <path d="M1024,469.042C1025.16,469.002 1024.02,493.188 1024,532.418C1023.95,665.8 1024,959.06 1024,959.06C893.94,888.59 767.26,802.3 670.29,689.19C643.51,657.95 620.487,624.637 601.22,589.25C595.647,579.017 590.937,568.067 587.09,556.4C572.67,512.73 603.51,490.48 639.86,478.68C689,462.74 740.71,465.27 791.62,465.74C854.393,466.32 917.163,467.16 979.93,468.26C990.517,468.447 1013.82,469.389 1024,469.042Z" style="fill:rgb(226,92,49);fill-rule:nonzero;"/>
            </g>
            <g transform="matrix(1.14555,0,0,1.10879,-66.2391,-17.3376)">
                <path d="M507.51,503.8L485.49,1024L0,1024L0,960.19C0.153,960.237 0.24,960.103 0.26,959.79C0.28,959.583 0.393,959.49 0.6,959.51C0.787,959.523 0.97,959.48 1.15,959.38C97.54,904.57 190.04,843.23 272.39,768.63C330.15,716.29 380.55,658.06 417.16,590.43C432.27,562.51 448.48,527.79 419.4,501.58C390.44,475.47 340.99,467.3 303.56,466.19C279.773,465.483 255.983,465.267 232.19,465.54C148.31,466.52 85.6,467.35 44.06,468.03C30.08,468.263 19.343,468.31 11.85,468.17C11.603,468.17 11.563,468.08 11.73,467.9C11.81,467.807 11.9,467.753 12,467.74C103.53,458.73 195.52,451.94 287.44,448.61C330.14,447.07 370.01,448.01 411.77,454.33C441.64,458.84 495.52,471.77 507.51,503.8Z" style="fill:rgb(0,2,15);fill-rule:nonzero;"/>
            </g>
            <g transform="matrix(1.14555,0,0,1.10879,-66.2391,-17.3376)">
                <path d="M1024,959.06L1024,1024L514.81,1024L514.51,503.71C521.14,471.44 584.58,458.28 610.81,454.32C653.24,447.9 696.19,447.32 738.99,448.69C781.563,450.05 824.09,452.277 866.57,455.37C914.73,458.87 963.11,462.24 1011.09,467.76C1012.24,467.893 1012.24,467.98 1011.08,468.02C1000.9,468.367 990.517,468.447 979.93,468.26C917.163,467.16 854.393,466.32 791.62,465.74C740.71,465.27 689,462.74 639.86,478.68C603.51,490.48 572.67,512.73 587.09,556.4C590.937,568.067 595.647,579.017 601.22,589.25C620.487,624.637 643.51,657.95 670.29,689.19C767.26,802.3 893.94,888.59 1024,959.06Z" style="fill:rgb(0,2,15);fill-rule:nonzero;"/>
            </g>
            <g transform="matrix(1.14555,0,0,1.10879,-66.2391,-17.3376)">
                <path d="M514.51,503.71L514.81,1024L485.49,1024L507.51,503.8L514.51,503.71Z" style="fill:rgb(251,251,252);fill-rule:nonzero;"/>
            </g>
        </g>
    </g>
</svg>
